{"title":"Company Of Heroes 2013 BRRip 720p x264 AAC - PRiSTiNE [P2PDL]","uid":8190751,"size":598179876,"categoryP":"video","categoryS":"hd___movies","magnet":"?xt=urn:btih:cae85e2020537a87629c469256bfa3141b41c973&amp;dn=Company+Of+Heroes+2013+BRRip+720p+x264+AAC+-+PRiSTiNE+%5BP2PDL%5D&amp;tr=udp%3A%2F%2Ftracker.openbittorrent.com%3A80&amp;tr=udp%3A%2F%2Fopen.demonii.com%3A1337&amp;tr=udp%3A%2F%2Ftracker.coppersurfer.tk%3A6969&amp;tr=udp%3A%2F%2Fexodus.desync.com%3A6969","seeders":1,"leechers":0,"uploader":"Vitamin_X","files":-1,"time":1361817265,"description":"_________________________  Visit us at _________________________\n  &lt;a href=&quot;\nhttp://p2pdl.com&quot; rel=&quot;nofollow&quot; target=&quot;_NEW&quot;&gt;\nhttp://p2pdl.com&lt;/a&gt;  ____________________________ &lt;a href=&quot; http://p2pdl.com&quot; rel=&quot;nofollow&quot; target=&quot;_NEW&quot;&gt; http://p2pdl.com&lt;/a&gt;\n\n &lt;a href=&quot;\nhttp://cdn.piczend.com/images/Vgn2exyn/1361812059_cover.jpg&quot; rel=&quot;nofollow&quot; target=&quot;_NEW&quot;&gt;\nhttp://cdn.piczend.com/images/Vgn2exyn/1361812059_cover.jpg&lt;/a&gt;\n\nCompany Of Heroes 2013 BRRip 720p x264 AAC - PRiSTiNE\n\nGenre: Action | War\nPlot: American soldiers lost behind enemy lines during the WWII make a horrific discovery: \nHitler has a super bomb in development. Against all odds, they set out to find the scientist \nin charge of the program who is looking to defect.\nDirector: Don Michael Paul\nStars: Tom Sizemore, Chad Michael Collins, Vinnie Jones\nRated: Rated R for bloody war violence throughout, some language and brief nudity.\n\nInfo: &lt;a href=&quot;\nhttp://www.imdb.com/title/tt2555426/&quot; rel=&quot;nofollow&quot; target=&quot;_NEW&quot;&gt;\nhttp://www.imdb.com/title/tt2555426/&lt;/a&gt;\n &lt;a href=&quot;\nhttp://www.rottentomatoes.com/m/company_of_heroes/&quot; rel=&quot;nofollow&quot; target=&quot;_NEW&quot;&gt;\nhttp://www.rottentomatoes.com/m/company_of_heroes/&lt;/a&gt;\n\nGeneral\nComplete name                  : Company Of Heroes 2013 BRRip 720p x264 AAC - PRiSTiNE.mp4\nFormat                         : MPEG-4\nFormat profile                 : Base Media / Version 2\nCodec ID                       : mp42\nFile size                      : 564 MiB\nDuration                       : 1h 40mn\nOverall bit rate mode          : Variable\nOverall bit rate               : 785 Kbps\n\nSource                         : 720p.BluRay.DTS.x264-PHD\n\nVideo\nID                             : 1\nFormat                         : AVC\nWidth                          : 1 280 pixels\nHeight                         : 720 pixels\nDisplay aspect ratio           : 16:9\nFrame rate mode                : Variable\nFrame rate                     : 23.976 fps\nBit depth                      : 8 bits\nScan type                      : Progressive\nBits/(Pixel*Frame)             : 0.032\nStream size                    : 503 MiB (89%)\nWriting library                : x264 core 129\n\nAudio\nFormat                         : AAC\nBit rate mode                  : Variable\nBit rate                       : 80.0 Kbps\nChannel(s)                     : 2 channels\nChannel positions              : Front: L R\nSampling rate                  : 48.0 KHz\nStream size                    : 57.5 MiB (10%)\nLanguage                       : English\n\nSubtitle                       : Yes ( English)\n\n\nScreens: &lt;a href=&quot;\nhttp://cdn.piczend.com/images/PB5zwZDH/1361811973_1.jpg&quot; rel=&quot;nofollow&quot; target=&quot;_NEW&quot;&gt;\nhttp://cdn.piczend.com/images/PB5zwZDH/1361811973_1.jpg&lt;/a&gt; &lt;a href=&quot;\nhttp://cdn.piczend.com/images/FCLkkRnv/1361811973_2.jpg&quot; rel=&quot;nofollow&quot; target=&quot;_NEW&quot;&gt;\nhttp://cdn.piczend.com/images/FCLkkRnv/1361811973_2.jpg&lt;/a&gt; &lt;a href=&quot;\nhttp://cdn.piczend.com/images/SkJyTeMW/1361811973_3.jpg&quot; rel=&quot;nofollow&quot; target=&quot;_NEW&quot;&gt;\nhttp://cdn.piczend.com/images/SkJyTeMW/1361811973_3.jpg&lt;/a&gt; &lt;a href=&quot;\nhttp://cdn.piczend.com/images/vHUvlOxS/1361811973_4.jpg&quot; rel=&quot;nofollow&quot; target=&quot;_NEW&quot;&gt;\nhttp://cdn.piczend.com/images/vHUvlOxS/1361811973_4.jpg&lt;/a&gt;\n\n\nThumbs:\n &lt;a href=&quot;\nhttp://cdn.piczend.com/images/dgU5tQ1a/1361812059_thumbs.jpg&quot; rel=&quot;nofollow&quot; target=&quot;_NEW&quot;&gt;\nhttp://cdn.piczend.com/images/dgU5tQ1a/1361812059_thumbs.jpg&lt;/a&gt;\n----------------------------------------------------------------------------------------------------\n\n\nRecommend to you to use latest version of VLC player. Install K-Lite Codec Pack or shark007 codecs\nin case of any kind of problem in playback (For non-VLC Media Player users). Alternatively, install\nCore AVC codecs, the fastest decoder that there is coupled with Community Center Codec Pack and play\non Windows Media Player Classic. Check sample to be sure.\nEnjoy!\n\nGreets to: VYTO, a2zRG, MusiK_KinG, Kuroyukihime, TorDigger, Ash968, StyLishSaLH, Masta and staff members at\nExtraTorrent, TPB, H33T, KAT, 1337x, PublicHD, Ahashare, BTScene, SilverTorrent, LimeTorrents, TorrentMafia,\nP2PDL, and all others.\n\nEncoder Notes: Looking For Early Access To Anything You Can Provide DVDScr, R5, DVDR, BluRay, Direct\nAudio, Early Music Releases, Seedboxes, Dedicated Servers anything u can provide, Advance / Promo CDs/\nDVDs. If You Got anything to offer contact me at &quot;&lt;a class=&quot;__cf_email__&quot; href=&quot;/cdn-cgi/l/email-protection&quot; data-cfemail=&quot;4b3b392c0b233e382365282426&quot;&gt;[email&amp;#160;protected]&lt;/a&gt;&lt;script cf-hash='f9e31' type=&quot;text/javascript&quot;&gt;\n/* &lt;![CDATA[ */!function(){try{var t=&quot;currentScript&quot;in document?document.currentScript:function(){for(var t=document.getElementsByTagName(&quot;script&quot;),e=t.length;e--;)if(t[e].getAttribute(&quot;cf-hash&quot;))return t[e]}();if(t&amp;&amp;t.previousSibling){var e,r,n,i,c=t.previousSibling,a=c.getAttribute(&quot;data-cfemail&quot;);if(a){for(e=&quot;&quot;,r=parseInt(a.substr(0,2),16),n=2;a.length-n;n+=2)i=parseInt(a.substr(n,2),16)^r,e+=String.fromCharCode(i);e=document.createTextNode(e),c.parentNode.replaceChild(e,c)}}}catch(u){}}();/* ]]&gt; */&lt;/script&gt;&quot;.","torrent":{"xt":"urn:btih:cae85e2020537a87629c469256bfa3141b41c973","amp;dn":"Company+Of+Heroes+2013+BRRip+720p+x264+AAC+-+PRiSTiNE+%5BP2PDL%5D","amp;tr":["udp%3A%2F%2Ftracker.openbittorrent.com%3A80","udp%3A%2F%2Fopen.demonii.com%3A1337","udp%3A%2F%2Ftracker.coppersurfer.tk%3A6969","udp%3A%2F%2Fexodus.desync.com%3A6969"],"infoHash":"cae85e2020537a87629c469256bfa3141b41c973","infoHashBuffer":{"type":"Buffer","data":[202,232,94,32,32,83,122,135,98,156,70,146,86,191,163,20,27,65,201,115]},"announce":[],"urlList":[]}}